<svg width="33" height="32" viewBox="0 0 33 32" fill="none" xmlns="http://www.w3.org/2000/svg">
<g opacity="0.4">
<path d="M10.59 3.27197C10.215 3.64703 10.0044 4.15565 10.0044 4.68597C10.0044 5.2163 10.215 5.72492 10.59 6.09997L20.49 16L10.59 25.9C10.2257 26.2772 10.0241 26.7824 10.0286 27.3068C10.0332 27.8312 10.2435 28.3328 10.6143 28.7036C10.9851 29.0744 11.4868 29.2848 12.0112 29.2893C12.5356 29.2939 13.0408 29.0923 13.418 28.728L24.732 17.414C25.1069 17.0389 25.3175 16.5303 25.3175 16C25.3175 15.4696 25.1069 14.961 24.732 14.586L13.418 3.27197C13.0429 2.89703 12.5343 2.6864 12.004 2.6864C11.4736 2.6864 10.965 2.89703 10.59 3.27197Z" fill="white"/>
</g>
</svg>
