<svg width="68" height="12" viewBox="0 0 68 12" fill="none" xmlns="http://www.w3.org/2000/svg">
<path fill-rule="evenodd" clip-rule="evenodd" d="M46.5933 0.160156H61.4148C62.663 0.160156 63.1156 0.290115 63.5719 0.534152C64.0282 0.778188 64.3863 1.1363 64.6304 1.59261C64.8744 2.04892 65.0044 2.50153 65.0044 3.74969V8.07092C65.0044 9.31908 64.8744 9.77169 64.6304 10.228C64.3863 10.6843 64.0282 11.0424 63.5719 11.2865C63.1156 11.5305 62.663 11.6605 61.4148 11.6605H46.5933C45.3452 11.6605 44.8925 11.5305 44.4362 11.2865C43.9799 11.0424 43.6218 10.6843 43.3778 10.228C43.1337 9.77169 43.0038 9.31908 43.0038 8.07092V3.74969C43.0038 2.50153 43.1337 2.04892 43.3778 1.59261C43.6218 1.1363 43.9799 0.778188 44.4362 0.534152C44.8925 0.290115 45.3452 0.160156 46.5933 0.160156ZM46.5934 1.16024C45.6064 1.16024 45.2618 1.22678 44.9079 1.41605C44.6258 1.56689 44.4105 1.78225 44.2596 2.06429C44.0704 2.4182 44.0038 2.76277 44.0038 3.74979V8.07109C44.0038 9.05812 44.0704 9.40269 44.2596 9.75659C44.4105 10.0386 44.6258 10.254 44.9079 10.4048C45.2618 10.5941 45.6064 10.6606 46.5934 10.6606H61.4151C62.4021 10.6606 62.7467 10.5941 63.1006 10.4048C63.3827 10.254 63.598 10.0386 63.7489 9.75659C63.9381 9.40269 64.0047 9.05812 64.0047 8.07109V3.74979C64.0047 2.76277 63.9381 2.4182 63.7489 2.06429C63.598 1.78225 63.3827 1.56689 63.1006 1.41605C62.7467 1.22678 62.4021 1.16024 61.4151 1.16024H46.5934ZM67.504 5.8503C67.504 7.08695 66.0039 7.85042 66.0039 7.85042V3.85018C66.0039 3.85018 67.504 4.61365 67.504 5.8503Z" fill="white" fill-opacity="0.36"/>
<rect x="45.0037" y="2.07678" width="18.0008" height="7.66699" rx="1.60002" fill="white"/>
<path fill-rule="evenodd" clip-rule="evenodd" d="M14.6265 1.56617C14.6034 1.68212 14.6034 1.82157 14.6034 2.10046V9.80103C14.6034 10.0799 14.6034 10.2194 14.6265 10.3353C14.7212 10.8113 15.0933 11.1834 15.5693 11.2781C15.6852 11.3011 15.8247 11.3011 16.1036 11.3011C16.3824 11.3011 16.5219 11.3011 16.6378 11.2781C17.1138 11.1834 17.4859 10.8113 17.5806 10.3353C17.6037 10.2194 17.6037 10.0799 17.6037 9.80103V2.10046C17.6037 1.82157 17.6037 1.68212 17.5806 1.56617C17.4859 1.09019 17.1138 0.718124 16.6378 0.623415C16.5219 0.600342 16.3824 0.600342 16.1036 0.600342C15.8247 0.600342 15.6852 0.600342 15.5693 0.623415C15.0933 0.718124 14.7212 1.09019 14.6265 1.56617ZM9.90348 4.50036C9.90348 4.22158 9.90348 4.0822 9.92653 3.96629C10.0212 3.49024 10.3934 3.11811 10.8694 3.02342C10.9853 3.00037 11.1247 3.00037 11.4035 3.00037C11.6822 3.00037 11.8216 3.00037 11.9375 3.02342C12.4136 3.11811 12.7857 3.49024 12.8804 3.96629C12.9035 4.0822 12.9035 4.22158 12.9035 4.50036V9.80033C12.9035 10.0791 12.9035 10.2185 12.8804 10.3344C12.7857 10.8104 12.4136 11.1826 11.9375 11.2773C11.8216 11.3003 11.6822 11.3003 11.4035 11.3003C11.1247 11.3003 10.9853 11.3003 10.8694 11.2773C10.3934 11.1826 10.0212 10.8104 9.92653 10.3344C9.90348 10.2185 9.90348 10.0791 9.90348 9.80033V4.50036ZM5.32656 6.26628C5.30349 6.38224 5.30349 6.5217 5.30349 6.80061V9.80089C5.30349 10.0798 5.30349 10.2193 5.32656 10.3352C5.42128 10.8112 5.79334 11.1832 6.26929 11.2779C6.38526 11.301 6.52471 11.301 6.80362 11.301C7.08253 11.301 7.22199 11.301 7.33795 11.2779C7.81391 11.1832 8.18597 10.8112 8.28068 10.3352C8.30376 10.2193 8.30376 10.0798 8.30376 9.80089V6.80061C8.30376 6.5217 8.30376 6.38224 8.28068 6.26628C8.18597 5.79032 7.81391 5.41826 7.33795 5.32355C7.22199 5.30047 7.08253 5.30047 6.80362 5.30047C6.52471 5.30047 6.38526 5.30047 6.26929 5.32355C5.79334 5.41826 5.42128 5.79032 5.32656 6.26628ZM0.526365 8.26637C0.503296 8.38231 0.503296 8.52174 0.503296 8.80061V9.80067C0.503296 10.0795 0.503296 10.219 0.526365 10.3349C0.621069 10.8109 0.993153 11.183 1.46914 11.2777C1.58509 11.3008 1.72452 11.3008 2.00338 11.3008C2.28225 11.3008 2.42168 11.3008 2.53763 11.2777C3.01362 11.183 3.3857 10.8109 3.4804 10.3349C3.50347 10.219 3.50347 10.0795 3.50347 9.80067V8.80061C3.50347 8.52174 3.50347 8.38231 3.4804 8.26637C3.3857 7.79038 3.01362 7.41829 2.53763 7.32359C2.42168 7.30052 2.28225 7.30052 2.00338 7.30052C1.72452 7.30052 1.58509 7.30052 1.46914 7.32359C0.993153 7.41829 0.621069 7.79038 0.526365 8.26637Z" fill="white"/>
<path fill-rule="evenodd" clip-rule="evenodd" d="M30.3043 2.6966C32.5388 2.6967 34.6878 3.55529 36.3073 5.09492C36.4292 5.21378 36.6241 5.21228 36.7442 5.09155L37.9099 3.91509C37.9708 3.85386 38.0047 3.77091 38.0042 3.68461C38.0037 3.59831 37.9688 3.51577 37.9073 3.45526C33.6568 -0.618224 26.9511 -0.618224 22.7006 3.45526C22.639 3.51573 22.6041 3.59824 22.6035 3.68454C22.6029 3.77084 22.6368 3.85381 22.6976 3.91509L23.8636 5.09155C23.9836 5.21246 24.1787 5.21396 24.3006 5.09492C25.9202 3.55519 28.0695 2.6966 30.3043 2.6966ZM30.3042 6.52411C31.5319 6.52403 32.7157 6.98036 33.6258 7.80442C33.7489 7.92137 33.9428 7.91884 34.0627 7.7987L35.2271 6.62226C35.2884 6.56055 35.3224 6.47684 35.3215 6.38985C35.3207 6.30286 35.2849 6.21986 35.2224 6.15941C32.4511 3.5816 28.1595 3.5816 25.3883 6.15941C25.3257 6.21986 25.29 6.3029 25.2892 6.38992C25.2883 6.47693 25.3225 6.56064 25.3839 6.62226L26.5479 7.7987C26.6679 7.91884 26.8618 7.92137 26.9849 7.80442C27.8943 6.9809 29.0773 6.52462 30.3042 6.52411ZM32.5422 9.33175C32.6045 9.27063 32.6388 9.18651 32.637 9.09927C32.6352 9.01203 32.5975 8.92939 32.5328 8.87086C31.2464 7.78279 29.3623 7.78279 28.0758 8.87086C28.0111 8.92934 27.9733 9.01195 27.9715 9.0992C27.9696 9.18644 28.0038 9.27058 28.0661 9.33175L30.0808 11.3646C30.1398 11.4243 30.2203 11.4579 30.3043 11.4579C30.3883 11.4579 30.4688 11.4243 30.5279 11.3646L32.5422 9.33175Z" fill="white"/>
</svg>
